<svg width="1000" height="152" viewBox="0 0 1000 152" fill="none" xmlns="http://www.w3.org/2000/svg">
<g clip-path="url(#clip0_11_2)">
<rect width="1000" height="152" fill="white"/>
<rect x="590" width="400" height="100" rx="50" fill="#FFFF00"/>
<path d="M723.409 67H711.034V32.0909H723.511C727.023 32.0909 730.045 32.7898 732.58 34.1875C735.114 35.5739 737.063 37.5682 738.426 40.1705C739.801 42.7727 740.489 45.8864 740.489 49.5114C740.489 53.1477 739.801 56.2727 738.426 58.8864C737.063 61.5 735.102 63.5057 732.545 64.9034C730 66.3011 726.955 67 723.409 67ZM718.415 60.6761H723.102C725.284 60.6761 727.119 60.2898 728.608 59.517C730.108 58.733 731.233 57.5227 731.983 55.8864C732.744 54.2386 733.125 52.1136 733.125 49.5114C733.125 46.9318 732.744 44.8239 731.983 43.1875C731.233 41.5511 730.114 40.3466 728.625 39.5739C727.136 38.8011 725.301 38.4148 723.119 38.4148H718.415V60.6761ZM757.751 67.5114C755.058 67.5114 752.74 66.9659 750.797 65.875C748.865 64.7727 747.376 63.2159 746.331 61.2045C745.286 59.1818 744.763 56.7898 744.763 54.0284C744.763 51.3352 745.286 48.9716 746.331 46.9375C747.376 44.9034 748.848 43.3182 750.746 42.1818C752.655 41.0455 754.893 40.4773 757.462 40.4773C759.189 40.4773 760.797 40.7557 762.286 41.3125C763.786 41.858 765.092 42.6818 766.206 43.7841C767.331 44.8864 768.206 46.2727 768.831 47.9432C769.456 49.6023 769.768 51.5455 769.768 53.7727V55.767H747.661V51.267H762.933C762.933 50.2216 762.706 49.2955 762.251 48.4886C761.797 47.6818 761.166 47.0511 760.359 46.5966C759.564 46.1307 758.638 45.8977 757.581 45.8977C756.479 45.8977 755.501 46.1534 754.649 46.6648C753.808 47.1648 753.149 47.8409 752.672 48.6932C752.195 49.5341 751.95 50.4716 751.939 51.5057V55.7841C751.939 57.0795 752.178 58.1989 752.655 59.142C753.143 60.0852 753.831 60.8125 754.717 61.3239C755.604 61.8352 756.655 62.0909 757.871 62.0909C758.678 62.0909 759.416 61.9773 760.087 61.75C760.757 61.5227 761.331 61.1818 761.808 60.7273C762.286 60.2727 762.649 59.7159 762.899 59.0568L769.615 59.5C769.274 61.1136 768.575 62.5227 767.518 63.7273C766.473 64.9205 765.121 65.8523 763.462 66.5227C761.814 67.1818 759.911 67.5114 757.751 67.5114ZM774.507 76.8182V40.8182H781.666V45.2159H781.99C782.308 44.5114 782.768 43.7955 783.371 43.0682C783.984 42.3295 784.78 41.7159 785.757 41.2273C786.746 40.7273 787.973 40.4773 789.439 40.4773C791.348 40.4773 793.109 40.9773 794.723 41.9773C796.337 42.9659 797.626 44.4602 798.592 46.4602C799.558 48.4489 800.041 50.9432 800.041 53.9432C800.041 56.8636 799.57 59.3295 798.626 61.3409C797.695 63.3409 796.422 64.858 794.808 65.892C793.206 66.9148 791.411 67.4261 789.422 67.4261C788.013 67.4261 786.814 67.1932 785.825 66.7273C784.848 66.2614 784.047 65.6761 783.422 64.9716C782.797 64.2557 782.32 63.5341 781.99 62.8068H781.768V76.8182H774.507ZM781.615 53.9091C781.615 55.4659 781.831 56.8239 782.263 57.983C782.695 59.142 783.32 60.0455 784.138 60.6932C784.956 61.3295 785.95 61.6477 787.121 61.6477C788.303 61.6477 789.303 61.3239 790.121 60.6761C790.939 60.017 791.558 59.108 791.979 57.9489C792.411 56.7784 792.626 55.4318 792.626 53.9091C792.626 52.3977 792.416 51.0682 791.996 49.9205C791.575 48.7727 790.956 47.875 790.138 47.2273C789.32 46.5795 788.314 46.2557 787.121 46.2557C785.939 46.2557 784.939 46.5682 784.121 47.1932C783.314 47.8182 782.695 48.7045 782.263 49.8523C781.831 51 781.615 52.3523 781.615 53.9091ZM812.143 32.0909V67H804.882V32.0909H812.143ZM829.79 67.5114C827.142 67.5114 824.852 66.9489 822.92 65.8239C821 64.6875 819.517 63.108 818.472 61.0852C817.426 59.0511 816.903 56.6932 816.903 54.0114C816.903 51.3068 817.426 48.9432 818.472 46.9205C819.517 44.8864 821 43.3068 822.92 42.1818C824.852 41.0455 827.142 40.4773 829.79 40.4773C832.438 40.4773 834.722 41.0455 836.642 42.1818C838.574 43.3068 840.062 44.8864 841.108 46.9205C842.153 48.9432 842.676 51.3068 842.676 54.0114C842.676 56.6932 842.153 59.0511 841.108 61.0852C840.062 63.108 838.574 64.6875 836.642 65.8239C834.722 66.9489 832.438 67.5114 829.79 67.5114ZM829.824 61.8864C831.028 61.8864 832.034 61.5455 832.841 60.8636C833.648 60.1705 834.256 59.2273 834.665 58.0341C835.085 56.8409 835.295 55.483 835.295 53.9602C835.295 52.4375 835.085 51.0795 834.665 49.8864C834.256 48.6932 833.648 47.75 832.841 47.0568C832.034 46.3636 831.028 46.017 829.824 46.017C828.608 46.017 827.585 46.3636 826.756 47.0568C825.938 47.75 825.318 48.6932 824.898 49.8864C824.489 51.0795 824.284 52.4375 824.284 53.9602C824.284 55.483 824.489 56.8409 824.898 58.0341C825.318 59.2273 825.938 60.1705 826.756 60.8636C827.585 61.5455 828.608 61.8864 829.824 61.8864ZM851.037 76.8182C850.116 76.8182 849.253 76.7443 848.446 76.5966C847.651 76.4602 846.991 76.2841 846.469 76.0682L848.105 70.6477C848.957 70.9091 849.724 71.0511 850.406 71.0739C851.099 71.0966 851.696 70.9375 852.196 70.5966C852.707 70.2557 853.122 69.6761 853.44 68.858L853.866 67.75L844.474 40.8182H852.111L857.531 60.0455H857.804L863.276 40.8182H870.963L860.787 69.8295C860.298 71.2386 859.634 72.4659 858.793 73.5114C857.963 74.5682 856.912 75.3807 855.639 75.9489C854.366 76.5284 852.832 76.8182 851.037 76.8182Z" fill="black"/>
<g clip-path="url(#clip1_11_2)">
<rect x="927" y="97.7042" width="44" height="25.16" rx="7" transform="rotate(-26.604 927 97.7042)" fill="white"/>
<path d="M975.481 95.843L965.591 75.0547C964.331 72.4066 961.259 71.2327 958.575 72.5092C956.912 73.3004 954.171 75.7813 955.996 79.6192M934.059 107.704L921.157 80.5837ZM975.481 95.843C981.567 108.636 974.586 119.801 962.222 125.683C949.858 131.565 944.083 130.39 926.881 118.964L917.893 113.022C914.858 111.062 914.517 106.808 917.19 104.281C918.062 103.452 919.169 102.912 920.359 102.733C921.55 102.554 922.766 102.745 923.844 103.281L934.109 107.81" fill="white"/>
<path d="M975.481 95.843L965.591 75.0547C964.331 72.4066 961.259 71.2327 958.575 72.5092C956.912 73.3004 954.171 75.7813 955.996 79.6192M934.059 107.704L921.157 80.5837M975.481 95.843C981.567 108.636 974.586 119.801 962.222 125.683C949.858 131.565 944.083 130.39 926.881 118.964L917.893 113.022C914.858 111.062 914.517 106.808 917.19 104.281C918.062 103.452 919.169 102.912 920.359 102.733C921.55 102.554 922.766 102.745 923.844 103.281L934.109 107.81" stroke="black" stroke-width="5" stroke-linecap="round" stroke-linejoin="round"/>
<path d="M948.684 88.9809L943.359 77.7872C942.754 76.5149 942.679 75.0543 943.15 73.7266C943.622 72.3989 944.602 71.313 945.874 70.7077V70.7077C947.147 70.1024 948.607 70.0274 949.935 70.499C951.263 70.9707 952.348 71.9505 952.954 73.2228L958.279 84.4165M939.09 93.5454L932.243 79.1535C931.638 77.8812 931.563 76.4205 932.034 75.0929C932.506 73.7652 933.486 72.6793 934.758 72.074V72.074C936.03 71.4687 937.491 71.3936 938.819 71.8653C940.146 72.337 941.232 73.3167 941.838 74.589L948.684 88.9809M929.495 98.1099L916.563 70.9252C915.957 69.6528 915.882 68.1922 916.354 66.8645C916.825 65.5368 917.805 64.4509 919.078 63.8456C920.35 63.2404 921.811 63.1653 923.138 63.637C924.466 64.1086 925.552 65.0884 926.157 66.3607L939.09 93.5454" fill="white"/>
<path d="M948.684 88.9809L943.359 77.7872C942.754 76.5149 942.679 75.0543 943.15 73.7266C943.622 72.3989 944.602 71.313 945.874 70.7077V70.7077C947.147 70.1024 948.607 70.0274 949.935 70.499C951.263 70.9707 952.348 71.9505 952.954 73.2228L958.279 84.4165M939.09 93.5454L932.243 79.1535C931.638 77.8812 931.563 76.4205 932.034 75.0929C932.506 73.7652 933.486 72.6793 934.758 72.074V72.074C936.03 71.4687 937.491 71.3936 938.819 71.8653C940.146 72.337 941.232 73.3167 941.838 74.589L948.684 88.9809M929.495 98.1099L916.563 70.9252C915.957 69.6528 915.882 68.1922 916.354 66.8645C916.825 65.5368 917.805 64.4509 919.078 63.8456C920.35 63.2404 921.811 63.1653 923.138 63.637C924.466 64.1086 925.552 65.0884 926.157 66.3607L939.09 93.5454" stroke="black" stroke-width="5" stroke-linecap="round" stroke-linejoin="round"/>
</g>
<rect x="903.144" y="36.1268" width="4.53333" height="20.4" rx="2.26667" transform="rotate(-25.4419 903.144 36.1268)" fill="black"/>
<rect x="887.437" y="57.1899" width="4.53333" height="20.4" rx="2.26667" transform="rotate(-70.4419 887.437 57.1899)" fill="black"/>
<rect x="929.277" y="33.7355" width="4.53333" height="20.4" rx="2.26667" transform="rotate(19.5581 929.277 33.7355)" fill="black"/>
<rect x="948.144" y="50.8375" width="4.53333" height="20.4" rx="2.26667" transform="rotate(64.5581 948.144 50.8375)" fill="black"/>
<rect x="908.515" y="72.4785" width="4.53333" height="20.4" rx="2.26667" transform="rotate(64.5581 908.515 72.4785)" fill="black"/>
</g>
<defs>
<clipPath id="clip0_11_2">
<rect width="1000" height="152" fill="white"/>
</clipPath>
<clipPath id="clip1_11_2">
<rect width="85" height="85" fill="white" transform="translate(887.173 75.1016) rotate(-25.4419)"/>
</clipPath>
</defs>
</svg>
